<?xml version="1.0" standalone="no"?>
<!DOCTYPE svg PUBLIC "-//W3C//DTD SVG 20010904//EN"
 "http://www.w3.org/TR/2001/REC-SVG-20010904/DTD/svg10.dtd">
<svg version="1.0" xmlns="http://www.w3.org/2000/svg"
 width="700.000000pt" height="700.000000pt" viewBox="0 0 700.000000 700.000000"
 preserveAspectRatio="xMidYMid meet">
<metadata>
Created by potrace 1.14, written by Peter Selinger 2001-2017
</metadata>
<g transform="translate(0.000000,700.000000) scale(0.100000,-0.100000)"
fill="#000000" stroke="none">
<path d="M3278 6996 c-1 -2 -39 -6 -83 -10 -489 -38 -1048 -217 -1470 -471
-596 -359 -1052 -848 -1354 -1453 -147 -295 -276 -685 -317 -960 -3 -20 -7
-44 -9 -52 -2 -8 -7 -42 -11 -75 -3 -33 -8 -68 -10 -79 -17 -94 -25 -521 -11
-671 9 -109 26 -240 37 -300 5 -27 12 -68 15 -90 3 -22 8 -48 11 -57 3 -9 7
-26 9 -37 11 -59 70 -269 102 -361 207 -611 555 -1121 1069 -1565 88 -76 440
-325 460 -325 2 0 23 -12 46 -26 42 -27 332 -174 343 -174 3 0 24 -9 48 -19
226 -102 649 -215 917 -245 254 -29 662 -29 860 0 545 79 977 232 1411 500
118 73 294 198 365 259 7 6 39 33 72 60 74 62 309 297 383 385 475 557 767
1263 826 1994 14 172 7 541 -12 676 -24 164 -26 179 -61 360 -3 14 -12 52 -21
85 -8 33 -16 67 -18 75 -8 32 -56 188 -77 245 -180 500 -455 934 -822 1300
-278 277 -545 473 -883 645 l-132 68 -123 -75 c-68 -42 -145 -90 -173 -108
-27 -18 -66 -42 -85 -53 -96 -55 -311 -191 -311 -198 0 -4 45 -24 99 -44 871
-329 1560 -1115 1797 -2049 44 -175 49 -182 -182 284 -196 396 -279 522 -405
618 -123 92 -265 90 -397 -8 l-50 -36 -46 31 c-138 95 -347 138 -465 95 -217
-78 -394 -360 -589 -940 -78 -235 -99 -302 -236 -790 -215 -764 -275 -953
-362 -1145 l-30 -65 -48 75 c-26 41 -58 91 -70 110 -12 19 -40 63 -61 98 -244
395 -571 869 -793 1147 -94 119 -118 147 -216 254 -364 397 -645 513 -912 378
-60 -31 -147 -99 -218 -173 -27 -28 -89 -91 -136 -140 -119 -124 -168 -169
-174 -162 -12 11 35 296 66 402 6 21 12 46 14 55 7 37 69 220 91 269 12 28 21
52 19 52 -2 0 16 41 41 90 24 50 44 93 44 96 0 9 94 169 158 269 66 102 142
204 197 262 l30 32 468 -465 469 -465 -6 93 c-7 107 -8 312 -1 378 11 117 18
162 36 249 71 344 247 631 524 852 201 160 407 272 870 469 227 97 405 180
505 238 107 62 250 179 228 187 -109 39 -448 111 -618 130 -30 4 -68 9 -85 11
-34 5 -541 14 -547 10z m1582 -2098 c37 -12 130 -66 130 -75 0 -3 -13 -28 -30
-55 -16 -26 -30 -50 -30 -52 0 -3 -29 -65 -64 -138 -35 -73 -78 -164 -96 -203
-228 -493 -503 -1029 -718 -1400 -116 -200 -262 -430 -262 -413 0 3 9 31 19
64 23 71 138 465 180 619 121 442 215 754 291 970 150 421 289 656 415 699 38
13 92 8 165 -16z m624 -71 c60 -63 152 -206 219 -342 19 -38 89 -181 155 -316
66 -135 141 -281 166 -324 26 -43 45 -79 43 -82 -2 -2 -40 32 -83 75 -130 128
-205 234 -394 557 -120 206 -219 361 -268 420 l-24 29 28 23 c17 14 43 23 63
23 28 0 43 -10 95 -63z m-261 -269 c30 -46 103 -166 162 -268 187 -320 273
-445 397 -576 l68 -71 -91 -22 c-143 -35 -289 -101 -399 -180 -53 -38 -170
-141 -210 -185 -19 -22 -40 -44 -45 -50 -21 -22 -102 -133 -136 -186 -60 -93
-73 -118 -186 -340 -185 -364 -290 -524 -458 -700 -194 -203 -387 -257 -565
-158 -61 34 -163 116 -158 128 2 4 36 43 76 86 124 133 283 351 458 629 135
214 367 642 578 1065 139 281 176 357 282 585 110 239 154 325 163 325 5 0 34
-37 64 -82z m-3574 -508 c305 -134 782 -732 1481 -1855 51 -82 100 -158 108
-167 14 -17 13 -18 -15 -18 -57 0 -182 39 -235 73 -140 90 -240 236 -412 600
-31 65 -56 120 -56 123 0 14 -168 350 -215 431 -188 320 -380 514 -580 584
-105 37 -239 50 -347 34 -21 -3 -53 -7 -70 -10 -54 -7 -122 -22 -141 -30 -35
-15 -6 22 92 116 125 121 182 152 271 147 39 -3 86 -14 119 -28z m45 -469
c141 -71 261 -203 399 -435 33 -57 197 -381 197 -391 0 -3 -60 74 -134 172
-198 265 -334 402 -515 518 -87 56 -240 129 -307 147 l-49 12 50 13 c29 7 96
11 162 9 111 -2 115 -3 197 -45z m-709 -155 c106 -11 136 -16 215 -36 291 -74
521 -254 780 -610 30 -41 60 -82 67 -90 6 -8 46 -60 89 -115 128 -166 213
-264 339 -390 166 -166 315 -274 480 -350 135 -61 284 -79 382 -46 34 11 64
21 66 21 1 0 27 -23 57 -51 109 -102 265 -188 374 -207 84 -14 208 -6 281 17
253 83 470 303 733 741 12 19 69 130 128 245 131 257 166 319 245 425 150 203
344 348 539 404 51 14 86 22 150 32 45 7 214 6 273 -1 49 -6 57 -10 58 -29 2
-28 2 -22 -5 -103 -17 -180 -36 -296 -77 -458 -72 -281 -189 -552 -344 -795
-543 -852 -1511 -1339 -2515 -1266 -637 47 -1254 324 -1708 768 -81 79 -142
146 -241 263 -75 90 -213 302 -288 445 -107 205 -209 491 -253 715 -5 28 -12
61 -14 74 -3 13 -8 49 -12 80 -3 31 -8 58 -9 61 -4 7 -19 248 -16 261 1 6 145
3 226 -5z"/>
</g>
</svg>
